<?xml version="1.0" encoding="UTF-8" standalone="no"?>
<svg
   xmlns:dc="http://purl.org/dc/elements/1.1/"
   xmlns:cc="http://creativecommons.org/ns#"
   xmlns:rdf="http://www.w3.org/1999/02/22-rdf-syntax-ns#"
   xmlns:svg="http://www.w3.org/2000/svg"
   xmlns="http://www.w3.org/2000/svg"
   viewBox="0 0 1026.1927 388.50784"
   height="388.50784"
   width="1026.1927"
   id="svg2"
   version="1.1">
  <metadata
     id="metadata8">
    <rdf:RDF>
      <cc:Work
         rdf:about="">
        <dc:format>image/svg+xml</dc:format>
        <dc:type
           rdf:resource="http://purl.org/dc/dcmitype/StillImage" />
        <dc:title></dc:title>
      </cc:Work>
    </rdf:RDF>
  </metadata>
  <defs
     id="defs6" />
  <path
     id="path825"
     d="m 19.737695,385.26531 c -4.4048,-2.99313 -6.60745,-6.54198 -8.32898,-13.41941 -0.36713,-1.46667 -1.03838,-16.46667 -1.4916598,-33.33333 -0.45328,-16.86667 -1.07084,-32.16667 -1.37236,-34 -0.30152,-1.83333 -0.91107,-16.99685 -1.35456,-33.69672 -0.65696,-24.73814 -0.48087,-30.29605 0.95048,-30 1.12588,0.23288 1.9149998,-1.30189 2.1972698,-4.27353 0.43874,-4.61889 0.42967,-4.62717 -2.3333298,-2.12669 -2.76721,2.50429 -2.77379,2.4971 -2.77379,-3.02974 0,-4.84313 0.37735,-5.54556 3,-5.58434 l 2.9999998,-0.0444 -3.1477098,-2.62231 c -3.07641,-2.56287 -3.08396,-2.62227 -0.33334,-2.62227 3.6626598,0 3.5495998,-1.84449 -0.54089,-8.82438 -3.08789,-5.26908 -3.34414,-6.94688 -3.21555,-21.05388 0.0768,-8.43071 -0.18678,-15.85685 -0.58585,-16.50256 -0.6996,-1.13197 -1.75883,-27.94312 -3.09283001,-78.285839 -0.62181,-23.466179 -0.5668,-24.100779 2.47344001,-28.531179 4.14445,-6.03953 10.9369798,-9.46882 18.7552598,-9.46882 4.75923,0 6.35414,0.50201 6.35414,2 0,1.1 0.66419,2 1.47598,2 0.81179,0 1.13062,-0.9 0.70851,-2 -0.42211,-1.1 -0.21338,-2 0.46383,-2 0.67722,0 1.10839,4.49403 0.95815,9.98671 l -0.27314,9.986719 -5.33333,0.0337 c -9.71191,0.0613 -9.32714,-1.985199 -7.56137,40.218389 2.57264,61.48861 2.57272,60.49806 -0.005,60.07245 -3.32924,-0.54975 -4.26245,2.08093 -1.97604,5.57044 1.87615,2.86336 1.79769,3.26537 -1.09451,5.60803 -4.3665,3.53682 -5.4675498,13.08599 -1.91812,16.63542 3.30598,3.30599 3.25757,5.1556 -0.11187,4.27447 -2.0464,-0.53515 -2.66666,-0.0409 -2.66666,2.12482 0,2.85255 1.89611,3.81432 3.23832,1.64258 0.40097,-0.64879 2.4615,-1.43388 4.57896,-1.74467 l 3.84993,-0.56504 0.97367,18.07799 c 0.53552,9.94289 1.13113,30.15701 1.32357,44.92028 0.19245,14.76326 0.68728,27.38818 1.09963,28.05538 0.41235,0.6672 1.18122,15.13905 1.70859,32.15968 0.61446,19.83161 1.48595,31.35964 2.42642,32.09661 0.80961,0.63443 9.23867,0.67599 18.80091,0.0927 9.53333,-0.58152 22.73333,-1.36846 29.33333,-1.74874 6.599998,-0.38028 18.729478,-1.11338 26.954385,-1.62912 11.69845,-0.73354 15.42788,-0.54476 17.12904,0.86708 1.85532,1.53978 2.36376,1.46686 3.46254,-0.49656 1.20219,-2.14818 1.51618,-2.1218 4.71744,0.39631 4.28672,3.37193 5.24798,3.3768 6.12292,0.0311 0.51608,-1.9735 1.85622,-2.68664 5.15551,-2.7435 2.45199,-0.0423 6.85816,-0.30328 9.79149,-0.58006 2.93334,-0.2768 9.30266,-0.8706 14.15406,-1.31959 l 8.82072,-0.81632 0.85272,4.26359 c 0.83398,4.16997 0.9113,4.21057 3.52078,1.84902 1.46744,-1.32801 2.33176,-2.75088 1.92074,-3.16192 -0.41104,-0.41102 -1.34698,0.1353 -2.07986,1.21406 -1.0745,1.58161 -1.25073,1.44505 -0.91013,-0.70528 0.49959,-3.15416 3.53145,-3.55623 44.38764,-5.8864 31.17286,-1.7779 51.52178,-3.00439 124.14478,-7.4826 29.413,-1.81376 54.163,-3.29771 55.00004,-3.29771 0.83704,0 1.52189,1.11055 1.52189,2.46788 0,1.83598 0.93887,2.43344 3.66667,2.33334 2.71456,-0.0996 3.56493,-0.74043 3.27488,-2.46788 -0.21548,-1.28334 0.23452,-2.33334 1,-2.33334 0.76548,0 1.39178,0.85958 1.39178,1.91015 0,3.67803 5.3516,3.89888 9.12514,0.37659 3.71434,-3.46706 9.23672,-4.1192 58.87487,-6.95274 6.96666,-0.39769 27.66666,-1.61256 46,-2.69972 18.33333,-1.08714 38.43333,-2.27708 44.66667,-2.64428 6.23333,-0.3672 25.67676,-1.54282 43.20762,-2.61252 17.53087,-1.06968 32.25923,-1.70698 32.72968,-1.41622 0.47047,0.29076 5.60234,-0.1056 11.40416,-0.88092 7.73846,-1.03406 10.68182,-1.01051 11.04811,0.0884 0.27463,0.82388 1.08472,1.49796 1.80023,1.49796 0.71548,0 0.93008,-0.6 0.47688,-1.33334 -0.48167,-0.77932 1.0092,-1.38026 3.588,-1.44629 2.4266,-0.0621 8.5223,-0.38559 13.5459,-0.71879 5.3565,-0.35528 9.8325,-0.026 10.8231,0.79607 1.2056,1.00053 2.1195,0.88337 3.1923,-0.40921 1.0665,-1.28506 7.2175,-2.09623 21.1769,-2.7927 20.2233,-1.00901 26.1403,-1.35976 45.6738,-2.70749 14.1324,-0.97509 70.3074,-4.33141 101.3333,-6.05443 12.8334,-0.7127 32.0334,-1.87794 42.6667,-2.58944 10.6333,-0.71149 31.3333,-1.93368 46,-2.71597 14.6667,-0.78229 29.30051,-1.70872 32.51961,-2.05875 4.535,-0.49309 6.24,-0.11093 7.5715,1.69698 1.6366,2.22224 1.7615,2.22224 2.623,2e-5 0.9617,-2.48088 5.9525,-3.28164 5.9525,-0.95506 0,1.72514 7.6373,9.2884 9.3793,9.2884 2.0886,0 1.4831,-3.51594 -1.4665,-8.51512 -1.6268,-2.7572 -3.483,-4.38778 -4.5353,-3.98398 -2.0509,0.787 -2.4374,-4.0681 -4.7361,-59.5009 -3.0789,-74.24368 -3.0846,-74.52605 -1.5422,-76.38446 1.1094,-1.33686 1.0466,-2.45712 -0.2455,-4.37307 -1.0891,-1.61491 -1.8301,-7.54975 -1.9864,-15.90913 -0.1371,-7.33334 -0.5398,-16.93334 -0.8949,-21.33334 -0.3552,-4.4 -1.2389,-24.19999 -1.964,-43.999989 -0.725,-19.799999 -1.6955,-42.749999 -2.1565,-50.999999 l -0.8383,-15.00003 h -9.1316 c -7.56921,0 -9.00031,-0.3422 -8.36411,-2 0.4221,-1.1 0.1033,-2 -0.7085,-2 -0.8118,0 -1.476,0.88857 -1.476,1.9746 0,2.97149 -2.0187,3.19391 -49.3333,5.43557 -13.3826,0.63403 -17.1866,0.88661 -42.3334,2.81086 l -11,0.84172 -0.2,-8.19804 c -0.11,-4.50892 -0.26,-8.93144 -0.3333,-9.8278099 -0.1878,-2.2954 7.9406,-3.4239 31.4977,-4.37296 11.2029,-0.45133 28.1231,-1.35762 37.6004,-2.01395 15.4905,-1.07279 17.3979,-0.96563 18.8796,1.06063 1.541,2.10747 1.822,2.09665 4.3227,-0.16648 1.9253,-1.74236 4.4804,-2.34437 9.1204,-2.14887 3.5452,0.14937 7.34581,-0.0528 8.44581,-0.44922 5.5923,-2.01545001 15.5633,-1.92830001 19.9525,0.17441 7.4512,3.56962 10.3627,9.2451099 11.2357,21.9018699 1.8802,27.25872 2.4075,59.963829 0.9523,59.064459 -2.197,-1.3578 -1.7526,4.76586 0.5686,7.83472 2.6965,3.56509 2.6639,15.411819 -0.042,15.411819 -1.1,0 -2,1.08 -2,2.4 0,1.32 -0.6508,3.0508 -1.4462,3.84622 -0.7954,0.79542 -1.2103,2.86542 -0.9219,4.6 l 0.5244,3.15378 1.8025,-3.66666 c 0.9914,-2.01667 2.2247,-3.66667 2.7407,-3.66667 1.3073,0 2.6338,10.67628 2.6338,21.19869 0,7.38251 -0.4362,9.09897 -2.6666,10.49188 -1.4667,0.91595 -2.6667,2.63373 -2.6667,3.81732 0,1.77684 0.3542,1.85796 2.0322,0.46536 3.1792,-2.63851 3.8583,-0.69441 4.1069,11.75825 0.1274,6.381 0.6397,23.60183 1.1384,38.2685 0.8281,24.35057 0.7252,26.44187 -1.1853,24.07849 -2.302,-2.84771 -2.7775,-10.30663 -0.8828,-13.847 1.9773,-3.69452 0.219,-9.56483 -2.8648,-9.56483 -2.2882,0 -2.5566,0.60646 -1.8446,4.16667 0.4583,2.29166 0.8333,7.68645 0.8333,11.9884 0,6.91904 0.453,8.25457 3.9246,11.57224 l 3.9245,3.7505 1.5439,39.66534 c 0.8491,21.81593 1.1535,41.74625 0.6764,44.28959 -1.1357,6.05334 -8.0271,13.90059 -12.2075,13.90059 -1.8696,0 -3.1952,-0.78461 -3.1952,-1.89125 0,-1.93314 -7.7657,-7.44208 -10.4907,-7.44208 -1.864,0 -2.0068,4.86848 -0.176,6 5.349,3.30581 -3.6182,5.5728 -25.99991,6.57308 -9.5334,0.42605 -20.9334,1.082 -25.3334,1.45765 -4.4,0.37565 -28.7,1.85929 -54,3.29699 -25.3,1.43769 -50.5,2.94138 -56,3.34153 -42.1581,3.0672 -123.0054,7.26179 -124.3333,6.45076 -0.55,-0.33589 -1,-2.32624 -1,-4.42299 0,-2.09674 -0.3642,-4.76133 -0.8093,-5.9213 -1.5611,-4.06798 -2.5198,-2.04956 -2.0748,4.36784 l 0.4493,6.47853 -5.1159,0.78111 c -2.8138,0.4296 -13.6358,1.19732 -24.0489,1.70601 -16.29891,0.79624 -19.59364,0.61143 -23.68147,-1.32837 -4.87411,-2.31292 -7.38561,-1.93811 -7.38561,1.1022 0,1.18649 -3.18731,1.99509 -10.20118,2.58797 -14.51926,1.22733 -23.13216,1.06753 -23.13216,-0.42917 0,-0.71031 0.87488,-0.95576 1.94418,-0.54543 2.03876,0.78235 2.99102,-1.74188 3.6859,-9.77049 0.41787,-4.82812 -2.0788,-6.16694 -2.69546,-1.4454 -0.7428,5.68738 -1.47891,6.81422 -3.4064,5.21454 -0.97547,-0.80956 -2.16836,-1.07713 -2.6509,-0.59461 -1.51633,1.51633 -0.9535,6.84977 0.78935,7.48003 2.92775,1.05874 -9.46317,2.29302 -43.66667,4.34973 -58.68061,3.52854 -98.62612,5.90182 -156.39186,9.29169 -31.01552,1.82008 -71.51552,4.19717 -90,5.28244 -18.48448,1.08525 -37.11327,2.32177 -41.39729,2.74783 l -7.78916,0.77462 0.45582,-5.08006 c 0.56194,-6.26274 -1.94116,-7.51923 -2.92018,-1.46587 -0.43559,2.69331 -1.39019,4.23911 -2.47368,4.00568 -0.97039,-0.20905 -2.56542,0.28472 -3.5445,1.09728 -0.97909,0.81257 -2.86593,1.33825 -4.19298,1.16819 -1.32707,-0.17007 -3.91284,0.0787 -5.74618,0.55278 -1.83333,0.47411 -19.83333,1.78408 -40,2.91106 -20.16667,1.12697 -45.66667,2.61809 -56.66667,3.31361 -11,0.69552 -23.02952,1.28092 -26.73227,1.30089 l -6.73226,0.0363 0.55516,-4.75535 c 0.62502,-5.3538 -2.34962,-9.17256 -8.31034,-10.66861 -2.86758,-0.71963 -3.44736,-0.40554 -3.44736,1.86737 0,1.50289 0.6,3.10334 1.33334,3.55657 2.115,1.30715 1.55692,3.08267 -1.24886,3.97319 -1.42021,0.45076 -2.77021,2.14118 -3,3.75652 -0.48517,3.41046 -6.12543,4.8742 -7.91327,2.05361 -0.84401,-1.33155 -1.13554,-1.36109 -1.15079,-0.11667 -0.0112,0.91668 -0.62042,1.66668 -1.35375,1.66668 -0.73333,0 -1.33333,-0.86458 -1.33333,-1.9213 0,-2.91076 -2.275077,-3.71543 -5.549777,-1.96286 -2.51224,1.34451 -3.28945,1.13872 -5.36088,-1.41938 l -2.42268,-2.99188 v 4.81438 c 0,4.49174 -0.2904,4.83103 -4.33333,5.0629 -2.38333,0.13668 -6.133328,0.38578 -8.333328,0.55356 -10.5775,0.80665 -46.90437,3.18902 -48.69049,3.1932 -1.1131,0.003 -4.17426,-1.45655 -6.80258,-3.24254 z M 183.47491,368.26257 c -0.42563,-1.06364 -0.74158,-0.74771 -0.80555,0.80556 -0.0579,1.40554 0.25723,2.19305 0.70029,1.75 0.44306,-0.44306 0.49042,-1.59307 0.1052,-2.55556 z m 79.15949,-1.93492 c 0.7357,-1.93504 1.03535,-3.82054 0.66588,-4.19 -1.217,-1.217 -4.73618,2.6504 -4.73618,5.20484 0,3.67792 2.52553,3.04822 4.0703,-1.01484 z m 144.92739,-7.48868 c -0.68701,-2.06104 -2.6443,-2.50658 -4.85865,-1.10596 -1.04915,0.66361 -1.49401,2.13333 -1.01977,3.36916 0.67986,1.77172 1.37185,1.90805 3.60864,0.71096 1.5221,-0.81462 2.5435,-2.15299 2.26978,-2.97416 z m 264.3357,-12.54504 c 0,-3.35237 -4.86437,-11.11469 -6.96516,-11.11469 -3.20386,0 -4.44522,3.39504 -2.1644,5.91946 0.9879,1.09339 2.56983,2.90882 3.51542,4.03427 1.71257,2.03833 5.61414,2.84515 5.61414,1.16096 z m -11.86165,-3.50963 c -1.71132,-1.71132 -3.44673,-0.38866 -2.17979,1.66131 0.49078,0.79408 1.50314,1.06628 2.2497,0.60488 0.91066,-0.56283 0.88766,-1.30861 -0.0699,-2.26619 z m -50.73476,-3.12332 c 0.73569,-1.93504 0.97179,-3.88409 0.52465,-4.33124 -1.01474,-1.01474 -4.59496,3.74151 -4.59496,6.10434 0,3.04854 2.68119,1.88058 4.07031,-1.7731 z m 45.26303,-1.2271 c 0,-1.14328 -0.60979,-1.70182 -1.35508,-1.2412 -0.7453,0.46061 -1.0099,1.39602 -0.58798,2.07869 1.14298,1.84939 1.94306,1.50455 1.94306,-0.83749 z m 4.80556,-5.5602 c -1.35536,-1.35535 -2.47367,0.68518 -1.36163,2.4845 0.84004,1.35923 1.15411,1.36028 1.60573,0.005 0.3088,-0.92639 0.19895,-2.04684 -0.2441,-2.4899 z m 94.52782,-0.36111 c 0,-2.89164 -5.2019,-2.49331 -5.7671,0.44161 -0.3646,1.89342 0.23,2.34246 2.6484,2 1.7153,-0.24289 3.1187,-1.34161 3.1187,-2.44161 z m 253.99991,-15.25464 c 0,-1.05672 -0.5585,-2.26651 -1.2412,-2.68841 -1.5852,-0.97971 -3.1794,1.51702 -2.0921,3.27638 1.2261,1.98383 3.3333,1.61212 3.3333,-0.58797 z M 21.339815,272.51257 c 2.86463,0 0.92308,-2.01726 -2.10999,-2.19228 -2.15982,-0.12462 -3.33239,0.51203 -3.33239,1.80932 0,1.2774 0.76306,1.70879 2.10905,1.19228 1.15997,-0.44513 2.65997,-0.80932 3.33333,-0.80932 z m -5.70459,-47.80556 c -1.9902,-0.75926 -2.81121,0.8342 -1.7594,3.41472 0.90881,2.22968 1.04268,2.21108 1.98585,-0.27582 0.55624,-1.46667 0.45434,-2.87918 -0.22645,-3.1389 z M 1015.3594,180.40696 c 0.8042,-7.6419 1.2131,-14.18542 0.9088,-14.54113 -0.3042,-0.35571 -1.7072,0.84429 -3.1177,2.66667 -1.759,2.2726 -2.3213,4.48368 -1.79,7.03893 0.4261,2.04904 0.068,6.67056 -0.7953,10.27005 -1.6037,6.68498 -0.9673,9.87775 1.7878,8.9692 0.9054,-0.2986 2.1493,-6.25809 3.0064,-14.40372 z m -5.5324,-1.3416 c -0.4292,-0.69462 -1.3488,-0.9117 -2.0434,-0.4824 -0.6947,0.4293 -0.9118,1.34887 -0.4824,2.0435 0.4292,0.69462 1.3488,0.9117 2.0434,0.4824 0.6947,-0.4293 0.9118,-1.34887 0.4824,-2.0435 z M 18.564095,171.17924 c 0,-0.73333 -0.6,-1.33333 -1.33333,-1.33333 -0.73333,0 -1.33333,0.6 -1.33333,1.33333 0,0.73334 0.6,1.33334 1.33333,1.33334 0.73333,0 1.33333,-0.6 1.33333,-1.33334 z m -4.6966,-12.62637 c 0.16121,-2.65525 -0.49876,-5.37251 -1.5084,-6.21043 -1.45877,-1.21066 -1.795,-0.37688 -1.795,4.45132 0,9.0677 2.77012,10.54282 3.3034,1.75911 z m 4.6966,-3.29493 c 0,-0.69006 -0.6,-1.62547 -1.33333,-2.0787 -0.73333,-0.45322 -1.33333,0.11134 -1.33333,1.25464 0,1.14328 0.6,2.0787 1.33333,2.0787 0.73333,0 1.33333,-0.56459 1.33333,-1.25464 z m -8,-30.0787 c 0,-1.09999 -0.5999998,-1.99999 -1.3333298,-1.99999 -0.73333,0 -1.33333,0.9 -1.33333,1.99999 0,1.1 0.6,2 1.33333,2 0.73333,0 1.3333298,-0.9 1.3333298,-2 z M 1014.1416,122.92925 c -0.4256,-1.06364 -0.7416,-0.74771 -0.8056,0.80556 -0.058,1.40554 0.2573,2.19305 0.7003,1.74999 0.4431,-0.44306 0.4904,-1.59306 0.1052,-2.55555 z M 10.564095,111.68854 c 0,-1.1 -0.5999998,-1.62919 -1.3333298,-1.17596 -0.73333,0.45323 -1.33333,1.72404 -1.33333,2.82404 0,1.1 0.6,1.62919 1.33333,1.17596 0.73333,-0.45323 1.3333298,-1.72404 1.3333298,-2.82404 z M 1012.4804,74.489902 c 1.0741,-5.72536 -0.286,-8.6775 -2.563,-5.56341 -1.6462,2.25122 -1.1391,10.252759 0.6496,10.252759 0.5685,0 1.4295,-2.1102 1.9134,-4.689349 z M 116.73076,382.11557 c -0.36156,-0.58502 -0.20039,-1.80308 0.35816,-2.70683 0.79457,-1.28565 1.80082,-1.23575 4.6249,0.2294 3.60636,1.871 3.60683,1.87325 0.56316,2.68863 -4.02902,1.07933 -4.76597,1.05128 -5.54622,-0.2112 z m 287.16667,-34.93633 c 0,-0.73334 0.93542,-1.33334 2.0787,-1.33334 1.14328,0 1.70786,0.6 1.25464,1.33334 -0.45323,0.73333 -1.38864,1.33333 -2.0787,1.33333 -0.69005,0 -1.25464,-0.6 -1.25464,-1.33333 z M 53.564095,324.38574 c -0.91666,-0.95692 -1.66665,-3.86984 -1.66662,-6.47317 3e-5,-3.8484 0.90988,-5.45929 4.8666,-8.61637 l 4.86657,-3.88306 -0.88116,-22.11694 c -0.48463,-12.16433 -2.06556,-50.61696 -3.51316,-85.45029 -1.44761,-34.83333 -2.64106,-64.43685 -2.65212,-65.7856 -0.0111,-1.34873 -2.72011,-5.07636 -6.02011,-8.28358 -6.48293,-6.3007 -7.30476,-9.3914 -3.66666,-13.78947 2.12829,-2.57288 4.44231,-2.94283 26.33333,-4.20993 13.199998,-0.76406 24.730778,-1.63499 25.623958,-1.9354 0.89319,-0.30042 1.95544,-0.009 2.36057,0.64562 0.72674,1.17588 3.283437,55.8892 6.013637,128.69169 0.77003,20.53333 1.99186,48.99692 2.71518,63.25242 0.72332,14.25551 0.85872,26.36048 0.30089,26.89995 -0.55783,0.53947 -12.714237,1.3888 -27.014237,1.8874 -20.576538,0.71745 -26.347658,0.54364 -27.666668,-0.83327 z m 40.491338,-16.4708 c 0.77697,-2.02474 -3.30721,-10.06904 -5.11215,-10.06904 -1.75386,0 -1.17348,10.39295 0.62081,11.11696 2.85318,1.15128 3.72553,0.94775 4.49134,-1.04792 z m -3.22467,-21.00237 c -1.24445,-1.24444 -1.6,-0.88889 -1.6,1.6 0,2.48889 0.35555,2.84444 1.6,1.6 1.24444,-1.24444 1.24444,-1.95556 0,-3.2 z M 101.23076,183.10055 c 0,-1.50995 -0.5738,-2.39073 -1.275097,-1.95729 -0.70131,0.43342 -0.93712,1.66884 -0.52402,2.74536 1.057637,2.75614 1.799117,2.43136 1.799117,-0.78807 z m 17.59993,131.86537 c 0.3508,-7.4125 0.72635,-8.45335 3.05003,-8.45335 1.45748,0 4.20834,-1.74413 6.11302,-3.87584 2.518,-2.81812 4.61478,-3.84309 7.68338,-3.75584 2.32116,0.066 4.22031,-0.50407 4.22031,-1.26681 0,-0.76275 -0.9,-1.04146 -2,-0.61934 -2.98733,1.14634 -2.47435,-0.85714 2.58673,-10.10294 2.52271,-4.60858 5.88165,-13.47923 7.46435,-19.71256 1.58269,-6.23333 3.61213,-12.10537 4.50988,-13.04899 2.18245,-2.29396 5.98144,-0.6799 6.73798,2.86272 0.89346,4.18367 3.27138,61.26348 2.59763,62.35363 -0.31525,0.51008 -5.82095,1.29466 -12.23488,1.74353 -6.41393,0.44887 -16.04172,1.15655 -21.3951,1.57263 l -9.73341,0.7565 z m 19.7334,-9.12002 c 0,-0.73333 -0.6,-1.33333 -1.33333,-1.33333 -0.73333,0 -1.33333,0.6 -1.33333,1.33333 0,0.73334 0.6,1.33334 1.33333,1.33334 0.73333,0 1.33333,-0.6 1.33333,-1.33334 z m 38.93334,11.73334 c -3.95392,-3.95392 -1.28308,-12.33506 5.00293,-15.69923 3.47112,-1.85768 9.76159,-15.28027 17.49337,-37.32732 8.50864,-24.26222 8.63759,-24.49985 10.51231,-19.37345 0.80455,2.2 2.12084,5.65317 2.92511,7.67372 1.22813,3.08541 0.76426,5.64764 -2.89666,16 -2.41176,6.81999 -4.42108,15.2243 -4.49801,18.81374 -0.1296,6.04744 0.24528,6.81859 5.52761,11.36968 4.65651,4.01191 5.66303,5.70766 5.64626,9.51255 -0.0332,7.54133 -1.38214,8.48471 -13.58179,9.49865 -17.01171,1.41391 -24.38096,1.28183 -26.13113,-0.46834 z m 58.91601,-2.13547 c -2.67697,-0.38209 -5.84935,-5.11944 -5.84935,-8.73489 0,-0.92303 1.5,-3.71136 3.33334,-6.19631 1.83333,-2.48495 3.33333,-5.83944 3.33333,-7.45443 0,-1.61498 -2.13505,-8.84842 -4.74457,-16.07429 -2.60952,-7.22586 -5.91778,-16.40585 -7.35167,-20.39996 -1.43389,-3.9941 -3.48703,-8.60496 -4.56249,-10.24633 -1.07548,-1.64139 -2.5043,-5.27348 -3.17518,-8.07132 -1.67993,-7.00615 -7.97949,-25.29376 -10.93822,-31.75367 -4.7783,-10.43259 -23.89454,-62.91985 -23.89454,-65.60694 0,-1.50327 -0.82521,-3.41807 -1.83381,-4.25513 -1.0086,-0.83706 -2.58348,-4.19948 -3.49973,-7.47204 -0.9601,-3.4291 -3.55728,-7.79651 -6.12991,-10.30799 -5.45309,-5.32352 -6.88001,-10.61765 -4.03291,-14.96288 2.64204,-4.032249 4.32147,-4.326929 35.00999,-6.142899 18.14636,-1.07379 26.28257,-1.09822 28.17657,-0.0845 3.89566,2.0849 4.70063,9.309339 1.53524,13.778479 -1.40732,1.98698 -2.55877,5.42894 -2.55877,7.6488 0,4.16104 15.53163,47.69171 20.04434,56.17847 1.39596,2.62532 3.40629,8.02532 4.4674,12 2.534,9.49186 9.88449,29.49755 16.69394,45.43553 3.00355,7.02998 5.46099,13.52244 5.46099,14.42766 0,0.90523 3.42177,10.91582 7.60395,22.24575 6.37861,17.28036 8.52718,21.57728 13.33333,26.66536 3.15116,3.33601 5.72939,5.42672 5.72939,4.64602 0,-0.7807 2.34613,-3.59018 5.21364,-6.2433 10.21152,-9.44806 13.2241,-22.46309 20.1979,-87.25949 1.4587,-13.55339 3.21762,-26.75339 3.9087,-29.33333 0.69108,-2.57995 2.47674,-13.37442 3.96813,-23.98771 1.4914,-10.61329 2.78315,-19.61329 2.87056,-20 0.0875,-0.38671 0.93583,3.19689 1.88536,7.96356 0.999,5.01495 1.21293,8.85393 0.50773,9.11111 -2.17976,0.79493 -1.287,4.90442 1.603,7.37893 2.27672,1.94939 2.66584,3.3586 2.01468,7.29632 -0.44386,2.68417 -0.81362,6.23031 -0.82169,7.88031 -0.009,1.8638 -0.82835,3 -2.16307,3 -1.71972,0 -1.97926,0.90152 -1.30076,4.51824 1.44436,7.69908 -1.45441,34.45697 -7.9605,73.48175 -2.71355,16.27638 -2.4501,28.4536 0.72837,33.66667 1.45315,2.38333 3.13776,4.33333 3.7436,4.33333 2.96536,0 6.93768,5.7286 6.93768,10.00503 0,6.46658 -3.12933,7.65265 -22.12116,8.38428 -15.80493,0.60885 -16.203,0.55394 -18.4874,-2.5502 -1.56904,-2.13207 -2.54699,-2.61807 -2.98211,-1.48196 -1.58909,4.14921 -4.79245,5.39008 -16.25736,6.29749 -18.79184,1.48732 -44.54325,2.718 -47.63596,2.27656 z m 18.15066,-68.34322 c 0,-2.67972 -1.94534,-3.50047 -3.25898,-1.37496 -1.06485,1.72297 0.63255,5.58616 2.06535,4.70064 0.65649,-0.40574 1.19363,-1.9023 1.19363,-3.32568 z m -0.73706,-6.70186 c -0.42929,-0.69462 -1.34886,-0.9117 -2.04349,-0.4824 -0.69463,0.4293 -0.91171,1.34887 -0.4824,2.0435 0.42929,0.69462 1.34887,0.9117 2.04349,0.4824 0.69463,-0.4293 0.91171,-1.34887 0.4824,-2.0435 z m -34.97405,-32.13056 c -2.0367,-2.03669 -3.53952,-0.53385 -2.40991,2.4099 0.66699,1.7381 1.24523,1.91033 2.43139,0.72417 1.18617,-1.18617 1.18105,-1.93153 -0.0215,-3.13407 z m -5.96448,-6.08889 c -0.0431,-2.75 -0.96387,-6.03585 -2.04623,-7.30189 -1.96787,-2.30183 -4.27819,-2.05381 -4.27819,0.45927 0,0.73333 0.6,0.96252 1.33334,0.50929 0.73333,-0.45323 1.40254,0.26136 1.48713,1.58797 0.0845,1.32662 0.2932,3.01203 0.46359,3.74536 0.17037,0.73333 0.40116,2.38333 0.51286,3.66667 0.39788,4.57144 2.6044,2.24342 2.5275,-2.66667 z m 3.6052,-0.44721 c -0.4293,-0.69463 -1.34887,-0.91171 -2.0435,-0.4824 -0.69462,0.42929 -0.9117,1.34886 -0.4824,2.04349 0.4293,0.69463 1.34887,0.91171 2.0435,0.4824 0.69462,-0.42929 0.9117,-1.34887 0.4824,-2.04349 z m 7.40372,-23.88612 c 0,-0.73333 -0.6,-1.33333 -1.33334,-1.33333 -0.73333,0 -1.33333,0.6 -1.33333,1.33333 0,0.73333 0.6,1.33333 1.33333,1.33333 0.73334,0 1.33334,-0.6 1.33334,-1.33333 z m -1.50795,-11.48256 c 1.22712,-2.69323 1.22675,-3.91636 -0.001,-5.39645 -2.04002,-2.45806 -3.77388,-0.0819 -3.80336,5.21234 -0.0257,4.62735 1.74153,4.71286 3.80497,0.18411 z m -25.15872,-33.2628 c 0,-1.05672 -0.6,-1.92131 -1.33333,-1.92131 -0.73334,0 -1.33334,1.23542 -1.33334,2.74536 0,1.50995 0.6,2.37454 1.33334,1.92131 0.73333,-0.45323 1.33333,-1.68864 1.33333,-2.74536 z m -12.85116,-5.25464 c 0.42211,-1.1 0.18629,-2 -0.52401,-2 -0.71032,0 -1.2915,0.9 -1.2915,2 0,1.1 0.23582,2 0.52402,2 0.28821,0 0.86937,-0.9 1.29149,-2 z m 186.45117,177.73333 c -2.7749,-2.7749 -1.87807,-10.35126 1.73333,-14.64316 2.31932,-2.75635 3.33333,-5.55704 3.33333,-9.20659 0,-7.24936 -5.11913,-29.58398 -7.06942,-30.84368 -1.4949,-0.96556 -11.97267,-0.44326 -21.99609,1.09646 l -4.39885,0.67572 0.39885,-8.40604 0.39884,-8.40604 10.33298,-0.73298 c 5.68312,-0.40312 10.88303,-1.30312 11.55532,-2 0.74248,-0.7696 0.51875,-5.26134 -0.56987,-11.44117 -0.98574,-5.59579 -2.20237,-14.3362 -2.70362,-19.42315 -0.78776,-7.99461 -0.5748,-9.58597 1.57025,-11.73359 2.42017,-2.4231 2.40775,-2.46534 -0.50177,-1.70603 -2.59042,0.67603 -3.17827,0.0548 -4.46287,-4.71575 -1.07197,-3.98101 -1.07655,-5.62862 -0.0167,-5.98193 2.10156,-0.70052 1.8057,-2.93207 -0.38876,-2.93207 -1.094,0 -2.21238,-2.04581 -2.73334,-5 -0.48495,-2.75 -3.34832,-17.6 -6.36307,-33 -5.08692,-25.98525 -6.3835,-39.704249 -4.35612,-46.091939 0.7134,-2.24773 2.20277,-2.59661 11.72733,-2.74709 6.00058,-0.0948 15.28726,-0.37324 20.63706,-0.61874 6.81349,-0.31265 9.8633,0.0385 10.18228,1.17239 1.09066,3.87699 13.11985,63.948089 14.74209,73.618719 0.98413,5.86666 2.45543,12.39577 3.26953,14.50913 0.81411,2.11336 1.68547,6.61336 1.93634,10 0.25088,3.38664 1.68741,12.15753 3.1923,19.49086 1.50488,7.33334 3.72594,18.73334 4.93564,25.33334 1.20972,6.6 3.03411,15.6 4.05419,20 1.02008,4.4 2.86656,13.22072 4.10329,19.60161 1.97594,10.19482 2.87159,12.24996 7.38635,16.94848 5.60957,5.8379 6.55087,10.45686 2.80441,13.76133 -4.07093,3.59065 -59.53897,6.61627 -62.73333,3.42191 z m 79.10962,-4.20371 c -4.10214,-2.99956 -3.17133,-9.29077 2.26486,-15.30799 2.61374,-2.8931 5.10399,-6.37652 5.53387,-7.74092 2.52368,-8.00977 3.05684,-23.09182 1.94896,-55.13117 -0.83808,-24.23693 -0.78766,-35.46165 0.16073,-35.77778 1.87228,-0.62409 1.75612,-3.89148 -0.16107,-4.53055 -0.89185,-0.29728 -1.7854,-4.42357 -2.11737,-9.77777 -0.71021,-11.45471 0.57905,-10.51871 3.63828,2.64137 1.85201,7.96699 2.03859,11.14315 0.90421,15.39311 -1.0737,4.02263 -1.0295,5.75467 0.17764,6.96181 1.2537,1.2537 1.60694,0.83287 1.60694,-1.91437 0,-5.55349 2.38326,-5.58156 3.92046,-0.0461 1.76472,6.35471 1.7717,8.80863 0.03,10.55034 -0.95494,0.95495 -0.88593,2.58471 0.22306,5.26667 1.57668,3.81304 1.8463,7.07438 2.91158,35.21712 0.77843,20.56454 4.9145,32.96987 12.88472,38.64517 5.1672,3.67936 5.70587,10.91314 1.03019,13.83426 -4.43981,2.77376 -31.68188,4.11171 -34.95704,1.71686 z m 52.79155,-5.19629 c -0.75476,-2.38334 -3.23892,-11.53334 -5.52037,-20.33333 -5.91107,-22.80022 -6.98353,-26.49087 -8.15576,-28.06615 -0.57277,-0.76972 -1.43855,-4.06972 -1.92392,-7.33333 -0.48537,-3.26363 -1.97651,-9.83386 -3.3136,-14.60052 -1.33711,-4.76667 -3.01631,-10.76667 -3.73157,-13.33334 -0.71526,-2.56666 -2.02776,-7.96666 -2.91667,-12 -0.88891,-4.03333 -2.04579,-7.93333 -2.57084,-8.66666 -0.52505,-0.73333 -1.72928,-4.196 -2.67604,-7.69483 -1.53871,-5.68634 -1.47275,-6.63625 0.62148,-8.95033 1.45023,-1.60249 1.99309,-3.49679 1.42483,-4.97184 -0.86306,-2.24029 -1.00542,-2.22731 -2.3771,0.21683 -1.26392,2.2521 -1.77528,1.44958 -3.82328,-6 l -2.3642,-8.59983 3.5796,-2.88048 c 4.0186,-3.23375 2.96626,-5.96029 -1.27754,-3.31 -1.50472,0.93972 -2.95482,1.48963 -3.22243,1.22203 -0.2676,-0.26762 -2.96241,-9.70047 -5.98847,-20.96191 -6.59315,-24.53641 -8.62824,-29.20754 -13.19872,-30.295039 -5.33437,-1.26925 -6.73324,-3.04713 -6.73324,-8.55761 0,-3.65916 0.72012,-5.50856 2.51999,-6.47183 2.30741,-1.23488 51.85501,-4.84374 52.80133,-3.84585 0.22638,0.23872 5.62872,19.634029 12.0052,43.100689 6.37648,23.46667 11.83658,42.91667 12.13355,43.22223 1.12055,1.15296 1.76851,-0.90163 3.13077,-9.92731 2.43299,-16.11961 2.83699,-17.96159 3.93944,-17.96159 1.71987,0 3.05892,25.03055 1.49535,27.95212 -0.96141,1.79642 -0.92012,2.82839 0.13937,3.48319 2.1926,1.35511 0.57806,16.20032 -2.08156,19.13916 -1.66034,1.83467 -1.97416,4.01913 -1.37452,9.56816 0.52844,4.8902 -0.34245,13.58926 -2.72213,27.1907 -4.58433,26.20244 -6.79359,39.49324 -9.53017,57.33333 -2.0294,13.22984 -3.24202,16.58299 -6.01988,16.64626 -0.49312,0.0107 -1.51412,-1.92959 -2.2689,-4.31292 z m -11.67489,-108 c 0.44219,-1.65 0.85953,-5.1 0.92744,-7.66666 0.0679,-2.56667 0.42611,-3.91667 0.79599,-3 1.5969,3.95754 3.4306,1.38726 2.73106,-3.82811 -1.0322,-7.69563 -2.81565,-9.05351 -6.87822,-5.23692 -2.54394,2.38991 -3.00594,3.64808 -2.01766,5.49469 0.70498,1.31727 1.28178,5.73447 1.28178,9.81602 0,7.5274 1.69249,9.89556 3.15961,4.42098 z m -9.70128,-38.40022 c 1.439,-0.77014 2.26415,-1.97014 1.83365,-2.66667 -1.20334,-1.94705 -6.91672,-1.50088 -7.72413,0.6032 -1.32536,3.45383 1.46568,4.43155 5.89048,2.06347 z m 12.35665,-5.54766 c 1.59986,-2.53629 0.22158,-6.38545 -2.28646,-6.38545 -2.47472,0 -6.60026,6.35456 -5.68092,8.75032 0.86753,2.26073 6.013,0.73347 7.96738,-2.36487 z m -15.60964,-13.42361 c 1.7453,-1.09007 2.23799,-14.29517 0.53336,-14.29517 -0.60973,0 -1.49744,2.07271 -1.97269,4.606 -0.61757,3.29197 -1.41747,4.39365 -2.80381,3.86166 -2.2242,-0.8535 -3.95704,2.55199 -2.81408,5.53047 0.76294,1.9882 4.12308,2.12963 7.05722,0.29704 z m -11.65226,-10.6285 c 0.6236,-1.65 0.81268,-3.5409 0.42017,-4.20199 -0.84856,-1.42924 -4.30659,2.9524 -4.30659,5.45683 0,2.84605 2.66128,1.98678 3.88642,-1.25484 z M 534.1755,295.9335 c -1.25293,-1.25294 -2.27806,-4.264 -2.27806,-6.69125 0,-3.47675 0.99021,-5.16845 4.66666,-7.97261 l 4.66667,-3.55944 -0.0439,-13.59881 c -0.0241,-7.47935 -0.61977,-24.99882 -1.32376,-38.93215 -0.70398,-13.93333 -1.60293,-35.83333 -1.99766,-48.66666 -0.39472,-12.83334 -1.29592,-34.43334 -2.00267,-48 -0.70675,-13.56667 -1.28808,-30.430399 -1.29185,-37.474959 l -0.007,-12.80831 10.33333,-0.83182 c 5.68334,-0.45752 17.58995,-1.228539 26.45915,-1.713379 15.90444,-0.86941 16.15614,-0.83825 18.33334,2.270149 3.3446,4.77507 2.6981,7.77912 -2.79248,12.97587 l -5,4.73241 0.2733,19.425009 c 0.15032,10.68376 0.98632,32.50831 1.85776,48.49897 1.58443,29.07331 1.5844,29.074 -1.2733,31.07562 -3.52236,2.46716 -3.68704,4.5171 -0.36287,4.5171 3.33667,0 3.97348,5.38315 4.88964,41.33333 0.66609,26.13735 1.92153,36 4.58253,36 2.36744,0 8.03294,6.8282 8.03294,9.68149 0,7.14344 -2.37015,8.18336 -20.86943,9.15655 -9.42181,0.49565 -22.85544,1.34213 -29.85251,1.88107 -11.05792,0.85172 -13.01989,0.68192 -15,-1.29818 z m 29.72194,-92.75426 c 0,-0.73333 -0.6,-1.33333 -1.33333,-1.33333 -0.73334,0 -1.33334,0.6 -1.33334,1.33333 0,0.73333 0.6,1.33333 1.33334,1.33333 0.73333,0 1.33333,-0.6 1.33333,-1.33333 z m 4,-0.58797 c 0,-0.32339 -0.6,-0.9588 -1.33333,-1.41203 -0.73334,-0.45323 -1.33334,-0.18864 -1.33334,0.58797 0,0.77662 0.6,1.41203 1.33334,1.41203 0.73333,0 1.33333,-0.26459 1.33333,-0.58797 z m -18.90727,-5.06507 c -0.63227,-4.43166 -5.09273,-4.82117 -5.09273,-0.44472 0,2.58064 0.68396,3.43109 2.7594,3.43109 2.0958,0 2.65693,-0.71818 2.33333,-2.98637 z m 22.38326,0.87732 c -0.44514,-1.15997 -0.84994,-3.40997 -0.89956,-5 l -0.0903,-2.89094 -1.414,2.92638 c -1.56883,3.24688 -0.65171,7.07361 1.69531,7.07361 0.83628,0 1.15442,-0.94703 0.70852,-2.10905 z m -24.14266,-7.22428 c 0.45323,-0.73333 2.58864,-1.33333 4.74536,-1.33333 4.37388,0 4.99789,-1.44667 1.77703,-4.11975 -1.79764,-1.4919 -2.3904,-1.46441 -3.66667,0.17008 -0.83732,1.07232 -2.41417,1.94967 -3.50412,1.94967 -1.08996,0 -2.18396,1.05 -2.43111,2.33333 -0.48116,2.4985 1.71303,3.21102 3.07951,1 z m 6,-25.33333 c 0,-2.93333 -0.6,-5.33333 -1.33333,-5.33333 -0.73334,0 -1.33334,2.4 -1.33334,5.33333 0,2.93333 0.6,5.33333 1.33334,5.33333 0.73333,0 1.33333,-2.4 1.33333,-5.33333 z m -9.33333,1.17596 c 0,-0.73333 -0.6,-0.96252 -1.33334,-0.50929 -0.73333,0.45322 -1.33333,1.42404 -1.33333,2.15737 0,0.73333 0.6,0.96252 1.33333,0.50929 0.73334,-0.45322 1.33334,-1.42404 1.33334,-2.15737 z m -0.42252,-8.09263 c -0.42563,-1.06364 -0.74158,-0.7477 -0.80555,0.80556 -0.0579,1.40555 0.25724,2.19306 0.70029,1.75 0.44306,-0.44306 0.49042,-1.59306 0.1052,-2.55556 z m 10.51458,-8.39649 c 7.12554,-5.43491 8.88501,-7.57644 7.4246,-9.03684 -2.54108,-2.54108 -7.91665,0.1004 -8.84972,4.34875 -0.60446,2.75212 -1.67824,4.00125 -3.43956,4.00125 -1.40838,0 -2.56072,0.9 -2.56072,2 0,2.90004 2.4756,2.46224 7.4254,-1.31316 z M 539.04628,87.845911 c 0.46749,-1.21828 0.003,-2 -1.19068,-2 -1.07699,0 -1.95816,0.9 -1.95816,2 0,1.1 0.53581,2 1.19068,2 0.65488,0 1.53604,-0.9 1.95816,-2 z m 77.40159,201.343049 c -2.79034,-4.25859 -1.59212,-9.26571 2.92566,-12.22587 5.49166,-3.59828 6.16431,-7.32257 4.65143,-25.75389 -1.22364,-14.90756 -2.35541,-43.40165 -4.86023,-122.36329 -0.64741,-20.40936 -0.46889,-24.33333 1.1071,-24.33333 2.23072,0 6.29228,-4.19481 6.29228,-6.498729 0,-1.1317 -1.41087,-1.35743 -4.66667,-0.74663 -3.67844,0.69008 -4.66667,0.44424 -4.66667,-1.16088 0,-1.11999 -2.4,-3.93719 -5.33333,-6.26043 -5.75011,-4.55417 -6.94617,-9.28464 -3.52911,-13.957739 1.89886,-2.59683 13.72032,-3.95654 42.44695,-4.88224 l 12.41549,-0.40008 0.33304,4.62004 c 0.76927,10.671839 4.73967,100.522658 5.06491,114.620018 0.19456,8.43333 0.79786,22.53333 1.34064,31.33333 0.54279,8.8 1.05943,22.808 1.14803,31.12888 l 0.1612,15.12888 5.6634,4.87112 c 4.4111,3.79404 5.6588,5.78358 5.6428,8.9978 -0.037,7.45493 -2.1761,8.14853 -30.06367,9.74969 -34.62467,1.98795 -33.50983,2.04564 -36.07325,-1.86665 z m 15.44957,-22.00972 c 0,-2.2 -0.6,-4 -1.33333,-4 -0.73334,0 -1.33334,1.8 -1.33334,4 0,2.2 0.6,4 1.33334,4 0.73333,0 1.33333,-1.8 1.33333,-4 z m 19.26491,-5.79792 c -0.48548,-1.93435 -1.4187,-3.18572 -2.0738,-2.78084 -1.39891,0.86456 -1.5996,6.39249 -0.28,7.71209 1.72898,1.72899 3.23404,-1.42412 2.3538,-4.93125 z m -3.98852,-7.44328 c 0.42192,-0.68267 0.15732,-1.61808 -0.58798,-2.07869 -0.74529,-0.46062 -1.35508,0.0979 -1.35508,1.2412 0,2.34204 0.80008,2.68688 1.94306,0.83749 z m -7.2968,-6.42547 c -0.0301,-9.35608 -2.08135,-11.33533 -3.17822,-3.06674 -0.90913,6.85336 -0.38245,9.40008 1.94399,9.40008 0.69005,0 1.24545,-2.85 1.23423,-6.33334 z m 10.07678,-11.91674 c -0.56968,-2.26979 -1.32318,-3.01644 -2.17973,-2.1599 -0.85653,0.85654 -0.77608,2.65164 0.23275,5.19286 1.78792,4.50374 3.26218,2.20718 1.94698,-3.03296 z m -6.05637,-4.41659 c 0,-0.73333 -0.63541,-1.33333 -1.41203,-1.33333 -0.77661,0 -1.0412,0.6 -0.58797,1.33333 0.45323,0.73333 1.08864,1.33333 1.41203,1.33333 0.32338,0 0.58797,-0.6 0.58797,-1.33333 z m -2.92049,-6.33333 c -0.54124,-2.81046 -2.90758,-2.63324 -3.5106,0.2629 -0.25154,1.20798 0.48345,2.07043 1.76442,2.07043 1.37328,0 2.02724,-0.87387 1.74618,-2.33333 z m -7.74618,-1.66667 c 0,-0.73333 -0.6,-1.33333 -1.33333,-1.33333 -0.73333,0 -1.33333,0.6 -1.33333,1.33333 0,0.73333 0.6,1.33333 1.33333,1.33333 0.73333,0 1.33333,-0.6 1.33333,-1.33333 z m 124.17122,59.53958 c -0.8188,-0.98656 -1.8608,-3.65433 -2.3156,-5.9284 -0.7183,-3.59114 -0.1497,-4.75513 4.3254,-8.85462 5.9635,-5.46308 5.7817,-2.83908 3.3331,-48.08989 -0.754,-13.93334 -1.6939,-37.63333 -2.0888,-52.66667 -1.3735,-52.29389 -2.3633,-74.028349 -3.5824,-78.666659 -0.7998,-3.04301 -2.7255,-5.60052 -5.5347,-7.35072 -3.2189,-2.00541 -4.4162,-3.80684 -4.7353,-7.124719 -0.82,-8.52561 0.4943,-8.95625 33.1499,-10.86117 27.7094,-1.61639 29.459,-1.5788 31.9623,0.68663 4.1636,3.76802 3.3824,9.25057 -2.0184,14.165219 l -4.6667,4.24657 0.014,14.1191 c 0.01,7.765499 0.9206,35.419089 2.0289,61.452419 1.1082,26.03333 2.3043,57.23333 2.6579,69.33333 0.3536,12.1 0.9568,24.41312 1.3405,27.36248 0.4898,3.76491 0.062,6.14824 -1.4374,8 -2.099,2.59305 -2.1242,2.58687 -1.4929,-0.36735 0.7574,-3.54496 -3.2807,-9.20493 -5.5616,-7.79525 -2.2683,1.40188 -1.8934,3.88416 0.4507,2.98461 1.5676,-0.60154 2,0.35952 2,4.44534 0,5.18422 1.7209,7.97917 3.3199,5.39192 1.898,-3.07106 2.9608,-0.9179 3.1817,6.44636 l 0.2341,7.80142 -10.2357,0.86524 c -16.118,1.36247 -16.0652,1.37223 -16.9666,-3.13477 -1.0188,-5.09392 -3.5334,-5.21807 -3.5334,-0.17446 0,3.38482 -0.576,3.92075 -5,4.65199 -8.4897,1.40327 -17.2479,0.96697 -18.8288,-0.93795 z m 21.1621,-56.47291 c 0,-2.68132 -0.3854,-3.21458 -1.5103,-2.08963 -0.8308,0.83071 -1.1496,2.45071 -0.7086,3.6 1.2206,3.18077 2.2189,2.50123 2.2189,-1.51037 z m -1.3333,-8.4 c 0,-1.46667 -0.6,-2.66667 -1.3333,-2.66667 -0.7334,0 -1.3334,1.2 -1.3334,2.66667 0,1.46666 0.6,2.66666 1.3334,2.66666 0.7333,0 1.3333,-1.2 1.3333,-2.66666 z m 15.1268,-22.05751 c -0.4343,-1.13162 -1.0755,-1.77154 -1.425,-1.42204 -0.3495,0.34951 -0.24,1.27539 0.2434,2.05751 1.3147,2.12728 2.0831,1.71401 1.1816,-0.63547 z m -11.1268,-7.35452 c 0,-0.69005 -0.6,-1.25464 -1.3333,-1.25464 -0.7334,0 -1.3334,0.93542 -1.3334,2.0787 0,1.14328 0.6,1.70786 1.3334,1.25464 0.7333,-0.45323 1.3333,-1.38864 1.3333,-2.0787 z m 16,-113.921298 c 0,-1.01344 -0.6,-2.21344 -1.3333,-2.66667 -0.7592,-0.46921 -1.3334,0.67906 -1.3334,2.66667 0,1.98761 0.5742,3.135879 1.3334,2.666669 0.7333,-0.453229 1.3333,-1.653229 1.3333,-2.666669 z m 25,205.256278 c -0.55,-0.56874 -1,-3.92654 -1,-7.46178 0,-6.06221 0.3071,-6.62156 5.4,-9.83659 9.8525,-6.21964 17.0919,-21.6014 20.0612,-42.62458 2.0724,-14.67338 5.9818,-20.15748 10.4939,-14.7208 2.2491,2.70998 5.3405,72.44997 3.2471,73.25326 -2.9806,1.14379 -37.2351,2.39059 -38.2022,1.39049 z m 51.2472,-2.76505 c -4.5884,-2.01796 -4.1413,-15.1579 0.5156,-15.1579 3.3611,0 6.0952,-7.70795 5.8308,-16.43751 -0.1371,-4.52604 0.1903,-9.88695 0.7275,-11.91315 0.5468,-2.06242 0.387,-4.40996 -0.3629,-5.33333 -1.1892,-1.46411 -2.4254,-24.86896 -5.427,-102.74881 -0.4755,-12.33805 -0.3481,-23.35342 0.283,-24.47861 0.6996,-1.247199 0.5016,-3.252759 -0.5071,-5.137669 -0.9101,-1.70053 -1.3311,-4.785 -0.9355,-6.85438 1.0103,-5.28491 -2.1169,-11.88491 -6.7717,-14.291999 -6.0351,-3.12088 -7.4278,-9.04523 -3.2666,-13.89545 2.1018,-2.44978 4.8914,-2.87236 28.1115,-4.25843 14.178,-0.84633 26.0449,-1.27207 26.3709,-0.94609 0.3259,0.32597 0.9078,10.4258 1.293,22.444059 0.7451,23.247989 1.9704,52.832449 5.2125,125.851369 1.107,24.93333 2.0126,51.18333 2.0125,58.33333 l -4e-4,13 -11.6666,0.15203 c -6.4167,0.0836 -13.3041,0.34669 -15.3054,0.58462 -2.0012,0.23794 -4.0047,-0.15961 -4.452,-0.88342 -0.5275,-0.85343 -1.3622,-0.86059 -2.3745,-0.0204 -1.8652,1.54792 -16.792,3.08933 -19.2876,1.99174 z m 13.0861,-6.41254 c 0,-2.12351 -2.4191,-4.10399 -3.5867,-2.93638 -1.0969,1.09686 0.6153,4.85768 2.2116,4.85768 0.7563,0 1.3751,-0.86458 1.3751,-1.9213 z m 15.7462,-11.0787 c -0.2471,-1.28333 -1.6329,-2.33333 -3.0795,-2.33333 -1.4466,0 -2.8324,1.05 -3.0795,2.33333 -0.3366,1.74767 0.4364,2.33334 3.0795,2.33334 2.6431,0 3.4161,-0.58567 3.0795,-2.33334 z m -12.2739,-6.63889 c -1.3554,-1.35535 -2.4737,0.68519 -1.3617,2.48451 0.8401,1.35922 1.1541,1.36028 1.6058,0.005 0.3088,-0.92639 0.1989,-2.04684 -0.2441,-2.48989 z m -4.826,-4.02777 c -0.011,-0.55 -0.5786,-1.88263 -1.2609,-2.96139 -1.5361,-2.42905 -3.3384,-0.90991 -2.2586,1.90388 0.7974,2.07809 3.5572,2.90735 3.5195,1.05751 z m 31.7637,-153.896369 c -0.2255,-3.05967 -1.0144,-5.76115 -1.7532,-6.00329 -0.8135,-0.26666 -1.1549,1.92689 -0.8657,5.56304 0.2626,3.30181 1.0515,6.003289 1.7532,6.003289 0.7016,0 1.0912,-2.503369 0.8657,-5.563039 z m -12.1936,-13.43696 c -0.3699,-0.91667 -0.6725,-0.16667 -0.6725,1.66667 0,1.83333 0.3026,2.58333 0.6725,1.66666 0.3699,-0.91666 0.3699,-2.41666 0,-3.33333 z m 32.2281,187.160369 c -0.1223,-3.02154 -0.2722,-6.47248 -0.3334,-7.66878 -0.061,-1.19628 1.9442,-3.27732 4.4562,-4.62453 12.0911,-6.48451 21.285,-20.90441 26.0782,-40.90155 2.6755,-11.16212 5.9127,-14.43693 9.2142,-9.3214 1.4884,2.30616 2.1752,10.32662 2.8975,33.8394 l 0.9467,30.81684 -4.5186,0.77084 c -2.4852,0.42396 -12.1686,1.17855 -21.5186,1.67686 l -17,0.90602 z m 22.3333,-16.16038 c 1.0389,0 1.8889,-0.9 1.8889,-2 0,-1.1 -0.48,-2 -1.0667,-2 -1.823,0 -4.2718,3.09922 -4.1614,5.26667 0.07,1.37332 0.3309,1.50752 0.7778,0.4 0.3699,-0.91667 1.5225,-1.66667 2.5614,-1.66667 z m -828.8108,-3.42013 c -0.71519,-1.88107 -1.30033,-4.76837 -1.30033,-6.41623 0,-1.64785 -1.28944,-5.65878 -2.86542,-8.9132 -1.57597,-3.25441 -3.26433,-7.3991 -3.75189,-9.21045 -0.53795,-1.99847 -2.16357,-3.59316 -4.1346,-4.05589 -3.01897,-0.70878 -3.27561,-1.43507 -3.63828,-10.29599 -0.34881,-8.52259 -0.0947,-9.6916 2.39716,-11.02517 1.53304,-0.82045 3.32936,-2.91737 3.99184,-4.65981 l 1.20451,-3.16808 4.94042,2.40305 c 2.71724,1.32169 5.95302,2.13828 7.1906,1.81464 1.95778,-0.51197 2.3629,1.11395 3.11769,12.51274 0.47713,7.20566 0.87061,20.15119 0.87441,28.76786 l 0.007,15.66666 h -3.36633 c -2.3867,0 -3.74475,-0.99529 -4.66667,-3.42013 z m -1.10033,-31.9132 c 0,-0.69667 -0.645,-1.48167 -1.43334,-1.74444 -0.78833,-0.26279 -1.43333,0.52221 -1.43333,1.74444 0,1.22223 0.645,2.00723 1.43333,1.74444 0.78834,-0.26277 1.43334,-1.04777 1.43334,-1.74444 z m -4.2,-2 c 0,-0.73333 -0.93542,-1.33333 -2.0787,-1.33333 -1.14328,0 -1.70786,0.6 -1.25464,1.33333 0.45323,0.73333 1.38864,1.33333 2.0787,1.33333 0.69005,0 1.25464,-0.6 1.25464,-1.33333 z m 6.43109,-6.22284 c -0.64873,-3.34503 -3.76443,-3.80433 -3.76443,-0.55493 0,1.63777 0.86092,2.77777 2.09776,2.77777 1.24166,0 1.92184,-0.90716 1.66667,-2.22284 z M 17.945495,204.86973 c -3.3521,-4.93307 -4.13209,-8.84946 -2.57208,-12.91477 1.08341,-2.82332 4.18394,-2.6841 4.99504,0.22428 0.35789,1.28334 1.03876,3.68334 1.51303,5.33334 0.6329,2.20188 0.30633,2.99999 -1.22754,2.99999 -1.14942,0 -2.08985,0.6 -2.08985,1.33334 0,0.73333 0.9,1.33333 2,1.33333 1.24445,0 2,1.25925 2,3.33333 0,4.44935 -0.63147,4.22474 -4.6186,-1.64284 z m 660.618595,-7.63226 c 0,-6.73549 0.4666,-8.09081 3.884,-11.28315 6.079,-5.67862 7.076,-11.97361 6.1118,-38.58746 -1.1302,-31.19372 -2.8723,-48.770089 -5.2994,-53.463449 -1.0942,-2.116 -3.7985,-5.13542 -6.0096,-6.70984 -3.6265,-2.58232 -4.0201,-3.57163 -4.0201,-10.10511 v -7.242549 l 8.3333,0.0147 c 11.5907,0.0204 18.3334,1.30511 18.3334,3.49311 0,1.00405 -0.72,1.82554 -1.6,1.82554 -1.2445,0 -1.2445,0.35556 0,1.6 1.2444,1.244439 1.9555,1.244439 3.2,0 2.9785,-2.97849 6.5046,-1.62233 13.2059,5.078999 12.2447,12.24464 18.5274,31.839999 18.5274,57.785509 0,23.45398 -8.2914,48.86884 -15.943,48.86884 -1.8176,0 -2.289,0.70756 -1.7767,2.66666 0.5352,2.0464 0.041,2.66667 -2.1248,2.66667 -1.6374,0 -2.8222,0.85163 -2.8222,2.02859 0,3.051 -10.9748,6.82039 -23.7438,8.15502 l -8.2562,0.86293 z m 29.6223,-16.96933 c -2.0367,-2.0367 -3.5396,-0.53386 -2.41,2.40989 0.667,1.73811 1.2453,1.91033 2.4314,0.72417 1.1862,-1.18617 1.1811,-1.93153 -0.022,-3.13406 z m 7.4611,-6.3389 c 0.3333,-1 -0.1667,-1.5 -1.1667,-1.16666 -0.9625,0.32082 -2.0125,1.37082 -2.3333,2.33333 -0.3334,1 0.1666,1.5 1.1666,1.16667 0.9625,-0.32084 2.0125,-1.37084 2.3334,-2.33334 z m 232.8486,24.62616 c -2.1828,-5.22409 -2.4912,-8.70949 -0.7709,-8.70949 1.2242,0 3.1027,-12.31507 3.5084,-23 0.1323,-3.48333 -0.1952,-6.33333 -0.7278,-6.33333 -2.0065,0 -5.0846,6.4401 -4.375,9.15364 0.4065,1.55449 0.3107,5.68085 -0.2129,9.16969 l -0.952,6.34333 -2.5044,-4.87976 c -1.3774,-2.68386 -4.0206,-6.0724 -5.8737,-7.53008 -2.6781,-2.10661 -3.535,-4.25112 -4.177,-10.45357 -0.763,-7.37243 -0.5783,-8.06091 3.3463,-12.46992 4.2944,-4.82439 7.2787,-12.67703 8.8826,-23.37251 0.5789,-3.86058 1.7371,-6.47134 3.0917,-6.96961 1.1913,-0.43818 2.5834,-1.42309 3.0936,-2.18868 1.7282,-2.59368 3.024,0.67544 3.7642,9.49635 0.6766,8.06358 0.4722,9.03513 -2.4769,11.7697 -3.3571,3.11288 -2.935,7.40887 0.4518,4.59808 2.7443,-2.2775 3.5104,0.24726 3.546,11.68539 0.018,5.67304 0.2406,18.71461 0.4955,28.98128 0.3352,13.49783 0.1062,17.46676 -0.8271,14.33333 -1.2309,-4.13281 -4.1988,-5.72193 -5.8119,-3.11189 -0.4152,0.6718 -0.1654,2.7718 0.555,4.66667 1.9675,5.17506 0.1993,4.14614 -2.0255,-1.17862 z m -3.2653,-24.04282 c 0,-1.1 -0.6,-2 -1.3333,-2 -0.7334,0 -1.3334,0.9 -1.3334,2 0,1.1 0.6,2 1.3334,2 0.7333,0 1.3333,-0.9 1.3333,-2 z m -4,-10.26667 c 0,-2.15389 -0.3943,-2.53905 -1.4838,-1.44951 -0.8161,0.8161 -1.0807,2.1361 -0.588,2.93334 1.3792,2.23157 2.0718,1.73552 2.0718,-1.48383 z m -811.73337,25.33333 c -2.51678,-2.51678 -1.87014,-3.97173 1.06667,-2.4 1.46667,0.78494 2.66667,2.00604 2.66667,2.71358 0,1.76585 -1.80556,1.6142 -3.73334,-0.31358 z m 1.9557,-5.63466 c -0.44816,-1.16787 -1.58152,-1.96784 -2.51859,-1.77771 -1.48324,0.30096 -1.94084,-5.35861 -1.13096,-13.98763 0.18419,-1.96241 2.57599,-0.9579 3.17475,1.33334 0.44282,1.69448 0.65212,1.48153 0.76444,-0.77778 0.2914,-5.86141 3.47753,-2.08636 4.40585,5.2202 0.75911,5.97484 0.50291,7.64699 -1.48141,9.66862 -2.13511,2.17525 -2.48896,2.21058 -3.21408,0.32096 z m 15.63752,-17.78575 c -1.70473,-1.13335 -4.15123,-8.83876 -4.29465,-13.52628 -0.054,-1.76736 -0.62214,-3.56736 -1.26236,-4 -0.64023,-0.43265 -1.57708,-1.90344 -2.08191,-3.26843 -0.69039,-1.86669 -0.41844,-2.29013 1.09725,-1.70852 1.55926,0.59835 2.01512,-0.27296 2.01512,-3.85153 0,-2.54365 -0.5429,-4.62483 -1.20645,-4.62483 -0.66356,0 -0.87579,-2.55 -0.47164,-5.66666 l 0.73483,-5.66667 -2.84014,2.52047 c -1.97313,1.75105 -2.60489,3.45777 -2.0695,5.59089 1.47398,5.87285 -0.97073,6.20055 -5.03441,0.67481 -2.17728,-2.96065 -6.28912,-6.69277 -9.13741,-8.29361 -4.25491,-2.39138 -4.95245,-3.33336 -3.91033,-5.28058 1.88614,-3.52428 1.53673,-6.54531 -0.75702,-6.54531 -1.47,0 -1.806,0.87419 -1.22529,3.18788 0.95997,3.82485 -0.89312,5.34483 -3.78279,3.10275 -1.27069,-0.98594 -2.2646,-4.2432 -2.52976,-8.29063 l -0.43676,-6.66667 7.33334,-0.86813 c 4.03333,-0.47748 11.53333,-0.92159 16.66666,-0.98691 l 9.33334,-0.1188 0.33968,10.11663 c 0.18683,5.56415 0.96001,11.10825 1.7182,12.32023 0.98512,1.57473 1.20199,-1.28632 0.75991,-10.02528 -0.51036,-10.08874 -0.26499,-12.3646 1.40212,-13.00432 4.33705,-1.664299 4.04302,-3.763999 6.45437,46.09203 0.63623,13.15434 0.42389,15.85252 -1.39025,17.66667 -2.37658,2.37659 -3.26047,2.55921 -5.42415,1.12076 z m 105.61823,-7.00657 c -2.8188,-7.04488 -2.70805,-10.33475 0.67721,-20.11675 4.22143,-12.19817 3.1401,-19.42945 -4.07606,-27.25805 -4.69931,-5.09816 -5.50104,-6.73095 -4.75822,-9.69059 1.10936,-4.420049 3.10238,-6.907619 5.5343,-6.907619 1.32049,0 1.61878,0.96958 1.02552,3.33333 -0.62954,2.508289 -0.3121,3.333329 1.28253,3.333329 1.16553,0 2.48124,-1.44273 2.92381,-3.206059 0.94546,-3.76698 4.4324,-4.66907 19.13728,-4.95098 8.16823,-0.15658 10.20043,0.23335 11.66667,2.23855 2.93665,4.01612 2.07229,6.828669 -4.30557,14.009809 -3.34462,3.76584 -7.6696,10.08587 -9.6111,14.0445 -3.20513,6.53514 -3.93389,7.19751 -7.9189,7.19751 -2.4139,0 -4.38891,0.6 -4.38891,1.33334 0,0.73333 1.5,1.33333 3.33333,1.33333 1.83334,0 3.33687,0.75 3.34119,1.66667 0.012,2.55357 -9.89095,28.98341 -10.86308,28.99224 -0.47037,0.004 -1.82037,-2.40439 -3,-5.35256 z m 271.20898,-26.30635 c 0.0107,-0.55 0.60204,-1.9 1.31292,-3 1.04516,-1.61728 1.2964,-1.42592 1.31292,1 0.0107,1.65 -0.57959,3 -1.31292,3 -0.73333,0 -1.32415,-0.45 -1.31292,-1 z m 440.13954,-17.36776 c -0.8109,-1.51528 -0.7876,-3.22462 0.065,-4.74765 1.6067,-2.87092 0.2406,-7.79468 -1.418,-5.111 -0.6886,1.11419 -2.033,-0.86991 -3.9062,-5.765119 -5.4499,-14.24143 -16.0956,-25.928169 -25.4999,-27.993719 -3.4414,-0.75585 -3.861,-1.49091 -4.7044,-8.24074 -0.5092,-4.07598 -0.4242,-7.86573 0.189,-8.42167 0.6132,-0.55593 7.449,-1.37484 15.1907,-1.81978 l 14.0757,-0.80899 1.5909,4.39955 c 0.875,2.41975 1.5909,8.0634 1.5909,12.54144 0,7.1941 0.4063,8.461469 3.4901,10.887159 4.4728,3.51834 6.934,2.11455 3.2214,-1.83736 -4.2393,-4.512539 -5.9796,-12.071569 -3.5709,-15.510479 1.3721,-1.95884 1.6139,-3.90658 0.8261,-6.65342 -1.0123,-3.52963 -0.8184,-3.88379 2.1264,-3.88379 2.9088,0 3.2496,0.57958 3.3316,5.66667 0.05,3.11666 0.5691,16.76666 1.153,30.333329 0.6172,14.337959 0.5593,25.643709 -0.1382,26.999999 -1.5538,3.02143 -5.9881,3.00137 -7.6128,-0.0344 z M 34.418525,77.255891 c -1.10463,-1.104629 1.50371,-17.118759 3.10715,-19.076639 0.85129,-1.03947 4.81582,-1.66667 10.53502,-1.66667 h 9.17007 v 4.58798 c 0,2.52339 0.53713,4.91994 1.19362,5.32567 1.31574,0.81318 2.80638,-2.21296 2.80638,-5.69722 0,-3.94846 6.82148,-5.42882 31.333328,-6.79977 40.169717,-2.2467 114.502467,-6.72964 156.666667,-9.44843 28.95404,-1.86699 33.02255,-1.7426 33.74756,1.03177 0.5452,2.08627 0.62615,2.09578 0.76444,0.0899 0.19522,-2.83161 2.5375,-3.49513 14.15467,-4.00974 l 9.33333,-0.41345 1.21156,9.01066 c 0.66636,4.95586 0.84507,9.37715 0.39714,9.82509 -0.89626,0.89625 -16.03468,2.04242 -68.27537,5.16929 -19.06666,1.14124 -49.04397,2.93639 -66.61625,3.98923 -24.01944,1.4391 -32.18508,1.5332 -32.89837,0.37905 -0.70275,-1.13707 -1.48932,-1.08659 -3.03311,0.19464 -1.20361,0.99891 -3.46554,1.38315 -5.35324,0.90937 -1.79791,-0.45125 -3.64112,-0.21825 -4.096,0.51778 -1.25635,2.0328 -9.46082,1.59812 -11.28326,-0.59779 -0.88372,-1.06481 -1.21674,-3.16481 -0.74008,-4.66667 0.50395,-1.58778 0.27103,-2.73065 -0.5565,-2.73065 -0.78276,0 -1.43238,1.35 -1.4436,3 -0.0336,4.94326 -1.5609,5.89452 -10.97959,6.8387 -9.434967,0.94583 -10.398047,0.36374 -7.383807,-4.46282 0.88891,-1.42337 1.16013,-3.04401 0.60272,-3.60142 -1.71858,-1.71858 -5.52969,1.64009 -5.96411,5.2561 -0.49327,4.10584 -2.36737,4.4975 -26.921458,5.62644 -9.16667,0.42146 -19.37926,1.083449 -22.69466,1.471099 -3.31539,0.38764 -6.36831,0.36448 -6.78425,-0.0515 z M 102.56409,65.257942 c 0,-1.05672 -0.55854,-2.26651 -1.2412,-2.68842 -1.585187,-0.9797 -3.179467,1.51704 -2.092127,3.27639 1.226067,1.98383 3.333327,1.61212 3.333327,-0.58797 z m 22.66667,-0.74536 c 0,-1.95555 -0.8889,-2.66667 -3.33334,-2.66667 -3.92176,0 -4.21902,1.03368 -1,3.47728 3.26272,2.47675 4.33334,2.27647 4.33334,-0.81061 z m -13.62867,-4.68198 c 0.38791,-2.55877 0.33335,-2.56521 -1.56265,-0.1845 -1.14695,1.44018 -2.64217,2.04808 -3.59265,1.46065 -1.06694,-0.65941 -1.28444,-0.45021 -0.63106,0.60698 1.486,2.4044 5.3258,1.15477 5.78636,-1.88313 z m 167.16201,-1.31802 c 0,-0.69667 -0.645,-1.48167 -1.43334,-1.74444 -0.78833,-0.26278 -1.43333,0.52222 -1.43333,1.74444 0,1.22222 0.645,2.00722 1.43333,1.74445 0.78834,-0.26278 1.43334,-1.04778 1.43334,-1.74445 z m 5.86786,-8.30394 c -1.2964,-3.37834 -3.84849,0.12748 -2.7082,3.72025 0.86234,2.71695 1.08623,2.78878 2.24403,0.7199 0.70737,-1.264 0.91624,-3.26207 0.46417,-4.44015 z m 26.75719,1.74844 c -0.50113,-4.89125 -0.6014,-9.39435 -0.22284,-10.00688 0.37857,-0.61254 8.94795,-1.57483 19.04305,-2.13842 10.09511,-0.5636 20.15474,-1.1718 22.35474,-1.35156 2.2,-0.17976 13.45,-0.78545 25,-1.34598 l 21,-1.01915 v 2.97318 c 0,3.99355 4.50819,3.19451 5.09273,-0.90264 0.36802,-2.57947 1.23098,-2.98638 6.33334,-2.98638 4.36201,0 5.90726,0.52317 5.90726,2 0,2.7513 1.9728,2.50706 4.17071,-0.51636 1.65128,-2.27149 5.59211,-2.72928 40.49596,-4.70433 21.26667,-1.20338 47.06667,-2.76612 57.33334,-3.47276 23.74166,-1.63409 69.58008,-3.813 74.1736,-3.52581 3.08967,0.19317 3.36729,0.58653 2.33333,3.30606 -1.7921,4.7136 -1.44524,10.9132 0.61059,10.9132 1.14221,0 2.22167,-2.75861 3,-7.66667 l 1.21581,-7.66667 9.80058,-0.66666 9.80057,-0.66667 1.61911,3.97218 1.61909,3.97218 1.90581,-4.30551 c 1.3054,-2.94912 2.81998,-4.30552 4.80759,-4.30552 1.59597,0 12.00972,-0.63979 23.14164,-1.42176 11.13192,-0.78197 20.49383,-1.16785 20.80413,-0.85751 1.2251,1.2251 -1.2447,4.9483 -3.30783,4.98649 -1.93711,0.0358 -1.91938,0.19853 0.15321,1.40549 3.06532,1.78505 4.98942,0.48617 4.98942,-3.36808 0,-3.67867 0.231,-3.70792 53.3334,-6.75237 71.6621,-4.10853 80.9,-4.66133 88.6666,-5.30583 4.4,-0.36514 15.2,-0.9669199 24,-1.3372999 8.8,-0.37038 19.0889,-1.03694 22.8641,-1.48125 7.7103,-0.90743 7.1828,-1.66595 9.1318,13.1321199 0.7817,5.93488 -0.5494,8.41914 -2.6714,4.9857 -0.5272,-0.85302 -1.8883,-0.60834 -3.7087,0.66667 -3.3168,2.32318 -8.5915,2.5912 -13.5905,0.69056 -2.545,-0.96759 -4.2723,-0.8368 -6.4202,0.48611 -2.0026,1.23346 -12.28,2.29912 -32.2717,3.34622 -16.1334,0.84501 -38.6334,2.12124 -50,2.83607 -30.4684,1.91609 -46.6667,2.28697 -46.6667,1.06848 0,-1.81697 -3.5734,-1.20043 -5.3333,0.9202 -0.913,1.1 -3.0466,2 -4.7414,2 -2.3563,0 -3.1946,-0.86294 -3.562,-3.66667 l -0.4804,-3.66667 -1.8221,3.66667 c -1.9467,3.91717 -5.3941,4.98237 -5.3941,1.66667 0,-1.1 -0.9642,-2.00001 -2.1427,-2.00001 -1.3568,0 -1.8612,0.73355 -1.3752,2.00001 0.5981,1.55844 -0.3353,2 -4.2277,2 -6.0988,0 -9.5804,-3.43737 -8.6121,-8.5026 0.3677,-1.92357 0.076,-3.49741 -0.6485,-3.49741 -0.7243,0 -1.7057,2.93058 -2.1809,6.51241 l -0.8639,6.5124 -9.64117,0.8217 c -5.30267,0.45194 -21.04121,1.43072 -34.97455,2.17506 -13.93333,0.74434 -39.43333,2.2505 -56.66666,3.34702 -17.23334,1.09652 -41.53334,2.57569 -54.00001,3.28704 -12.46666,0.71135 -32.86666,1.8975 -45.33333,2.63589 -12.46667,0.73839 -28.66667,1.67473 -36,2.08076 -7.33334,0.40604 -15.21463,1.06726 -17.51398,1.46939 -2.33544,0.40845 -4.56956,0.10186 -5.06181,-0.69462 -0.57703,-0.93366 -1.6652,-0.9911 -3.15269,-0.16642 -1.97892,1.09713 -21.0893,2.46661 -85.73677,6.14401 l -15.46524,0.87972 z m 49.84162,-10.11116 c 0,-0.73334 -0.63542,-1.33334 -1.41203,-1.33334 -0.77661,0 -1.0412,0.6 -0.58797,1.33334 0.45322,0.73333 1.08864,1.33333 1.41202,1.33333 0.32339,0 0.58798,-0.6 0.58798,-1.33333 z m 297.2029,-8.19897 c 1.89632,-5.43978 1.8451,-6.4677 -0.3222,-6.4677 -2.1814,0 -4.56375,5.13875 -3.86339,8.33333 0.78437,3.57774 2.56464,2.78422 4.18559,-1.86563 z m 6.7971,-5.80104 c 0,-1.1 -0.56458,-2 -1.25464,-2 -1.6813,0 -2.88546,2.08212 -1.82022,3.14736 1.50158,1.50158 3.07486,0.91452 3.07486,-1.14736 z m 23.75082,-0.33333 c -0.2446,-1.28333 -1.7886,-2.52506 -3.4311,-2.7594 -3.2825,-0.46832 -3.8693,1.00985 -1.3864,3.49273 2.3886,2.3886 5.3273,1.94127 4.8175,-0.73333 z m 153.5825,-6.41202 c 0,-1.05672 -0.9,-1.92131 -2,-1.92131 -2.0083,0 -2.7409,2.81465 -1.1473,4.40819 1.2443,1.24433 3.1473,-0.25936 3.1473,-2.48688 z m 5.5553,-5.25465 c 0.2471,-1.48165 -0.2959,-2.66666 -1.2219,-2.66666 -0.9167,0 -1.6667,0.45 -1.6667,1 0,0.55 0,2.32 0,3.93333 0,3.47901 2.2209,1.73624 2.8886,-2.26667 z"
     style="fill:#ff0000;fill-opacity:1;stroke-width:1.33333337" />
</svg>
