<?xml version="1.0" encoding="UTF-8" standalone="no"?>
<svg
   xmlns:dc="http://purl.org/dc/elements/1.1/"
   xmlns:cc="http://creativecommons.org/ns#"
   xmlns:rdf="http://www.w3.org/1999/02/22-rdf-syntax-ns#"
   xmlns:svg="http://www.w3.org/2000/svg"
   xmlns="http://www.w3.org/2000/svg"
   viewBox="0 0 16 16"
   height="16"
   width="16"
   id="svg2"
   version="1.1">
  <metadata
     id="metadata8">
    <rdf:RDF>
      <cc:Work
         rdf:about="">
        <dc:format>image/svg+xml</dc:format>
        <dc:type
           rdf:resource="http://purl.org/dc/dcmitype/StillImage" />
        <dc:title></dc:title>
      </cc:Work>
    </rdf:RDF>
  </metadata>
  <defs
     id="defs6" />
  <rect
     y="0"
     x="0"
     height="16"
     width="16"
     id="rect832"
     style="opacity:1;vector-effect:none;fill:#ff9955;fill-opacity:1;stroke:#ff0000;stroke-width:0.02;stroke-linecap:butt;stroke-linejoin:miter;stroke-miterlimit:4;stroke-dasharray:none;stroke-dashoffset:0;stroke-opacity:1" />
  <path
     id="path817-3"
     d="m 1.9073962,3.9325115 c 0,-1.0547119 0.862946,-1.9176579 1.9176579,-1.9176579 1.0547119,0 1.9176579,0.862946 1.9176579,1.9176579 0,1.0547119 -0.862946,1.9176579 -1.9176579,1.9176579 -1.0547119,0 -1.9176579,-0.862946 -1.9176579,-1.9176579 z"
     style="fill:#000000;stroke-width:1.91765797" />
  <path
     id="path817-3-6"
     d="m 9.9463481,3.895655 c 0,-1.0547119 0.8629459,-1.9176579 1.9176579,-1.9176579 1.054712,0 1.917658,0.862946 1.917658,1.9176579 0,1.0547119 -0.862946,1.9176579 -1.917658,1.9176579 -1.054712,0 -1.9176579,-0.862946 -1.9176579,-1.9176579 z"
     style="fill:#000000;stroke-width:1.91765797" />
  <path
     id="path817-5"
     d="M 3.440758,12.933118 C 2.6437648,11.852573 1.9916794,10.231753 1.9916794,9.3312985 c 0,-0.9095509 0.6440345,-0.7640227 1.4490786,0.327438 0.7969932,1.0805465 2.8619302,1.9646285 4.5887489,1.9646285 1.7268187,0 3.7917551,-0.884082 4.5887481,-1.9646285 0.805044,-1.0914607 1.449079,-1.2369889 1.449079,-0.327438 0,5.0114035 -7.6695126,7.6109435 -10.626576,3.6018195 z"
     style="fill:#000000;stroke-width:1.40606356" />
</svg>
