<?xml version="1.0" encoding="UTF-8" standalone="no"?>
<svg
   xmlns:dc="http://purl.org/dc/elements/1.1/"
   xmlns:cc="http://creativecommons.org/ns#"
   xmlns:rdf="http://www.w3.org/1999/02/22-rdf-syntax-ns#"
   xmlns:svg="http://www.w3.org/2000/svg"
   xmlns="http://www.w3.org/2000/svg"
   xmlns:sodipodi="http://sodipodi.sourceforge.net/DTD/sodipodi-0.dtd"
   xmlns:inkscape="http://www.inkscape.org/namespaces/inkscape"
   xml:space="preserve"
   width="14"
   viewBox="0 0 50 50"
   version="1.1"
   id="svg4"
   sodipodi:docname="marker1.svg"
   inkscape:version="0.92.5 (2060ec1f9f, 2020-04-08)"><metadata
     id="metadata10"><rdf:RDF><cc:Work
         rdf:about=""><dc:format>image/svg+xml</dc:format><dc:type
           rdf:resource="http://purl.org/dc/dcmitype/StillImage" /></cc:Work></rdf:RDF></metadata><defs
     id="defs8" /><sodipodi:namedview
     pagecolor="#ffffff"
     bordercolor="#666666"
     borderopacity="1"
     objecttolerance="10"
     gridtolerance="10"
     guidetolerance="10"
     inkscape:pageopacity="0"
     inkscape:pageshadow="2"
     inkscape:window-width="2560"
     inkscape:window-height="1376"
     id="namedview6"
     showgrid="false"
     inkscape:zoom="4.72"
     inkscape:cx="-47.555085"
     inkscape:cy="25"
     inkscape:window-x="0"
     inkscape:window-y="27"
     inkscape:window-maximized="1"
     inkscape:current-layer="svg4" /><path
     d="M46.4 16.2c-2.3-2.3-5.4-3.5-8.4-4.5-.5-.2-1.1-.3-1.6-.5-1.6-1.6-3.7-2.8-6.2-3.2-1-.2-1.9.1-2.5.6-.9-.3-1.8-.6-2.7-.8-3.2-1-6.4-1.8-9.5-.1-1 .5-1.9 1.2-2.7 2-6.4 1.4-11.7 5-12.4 12.7C0 27 1.9 31.5 4.9 34.9c.1.6.2 1.1.4 1.7 1 3.2 3.3 5.7 6.7 6.5 2.7.6 5.4-.2 7.9-1.2 3.3.4 6.7.3 9.9 0 6.5-.7 13.3-2.8 17.1-8.5 3.6-5.2 4-12.6-.5-17.2zm-17.3.9c2.1.4 4 1.7 4.7 3.8 0 .5-.1 1.1-.2 1.6-.3 1.4-.8 2.6-1.6 3.7-.7.2-1.5.1-2.3-.4-.8-.4-1.6-1-2.2-1.6-.4-.4-1.2-1.7-1.6-1.9 3.4 1.3 5.1-3 3.2-5.2zm-11.6 9.7c.2-1.9 1.1-3.9 2.3-5.5-.4 2.1.3 4.2 1.7 6 1.3 1.7 3.1 3.2 5 4.2-.2.1-.4.2-.6.4-.1 0-.1.1-.2.1-3.9.2-8.7-.8-8.2-5.2zm-6.4 3.1c.1.3.1.7.2 1 .2.6.4 1.2.7 1.8-.4-.2-.7-.5-1-.7.1-.8.1-1.4.1-2.1zm31.2-1.3c-.9 1.7-2.1 3.1-3.7 4.1 2-2.1 3.4-4.7 4-7.6.2-.7.3-1.4.3-2.1.6 1.5.5 3.3-.6 5.6z"
     id="path2"
     style="fill:#ff0000" /></svg>