<?xml version="1.0" encoding="UTF-8" standalone="no"?>
<svg
   xmlns:dc="http://purl.org/dc/elements/1.1/"
   xmlns:cc="http://creativecommons.org/ns#"
   xmlns:rdf="http://www.w3.org/1999/02/22-rdf-syntax-ns#"
   xmlns:svg="http://www.w3.org/2000/svg"
   xmlns="http://www.w3.org/2000/svg"
   xmlns:sodipodi="http://sodipodi.sourceforge.net/DTD/sodipodi-0.dtd"
   xmlns:inkscape="http://www.inkscape.org/namespaces/inkscape"
   xml:space="preserve"
   width="14"
   viewBox="0 0 50 50"
   version="1.1"
   id="svg4"
   sodipodi:docname="marker2.svg"
   inkscape:version="0.92.5 (2060ec1f9f, 2020-04-08)"><metadata
     id="metadata10"><rdf:RDF><cc:Work
         rdf:about=""><dc:format>image/svg+xml</dc:format><dc:type
           rdf:resource="http://purl.org/dc/dcmitype/StillImage" /></cc:Work></rdf:RDF></metadata><defs
     id="defs8" /><sodipodi:namedview
     pagecolor="#ffffff"
     bordercolor="#666666"
     borderopacity="1"
     objecttolerance="10"
     gridtolerance="10"
     guidetolerance="10"
     inkscape:pageopacity="0"
     inkscape:pageshadow="2"
     inkscape:window-width="2560"
     inkscape:window-height="1376"
     id="namedview6"
     showgrid="false"
     inkscape:zoom="4.72"
     inkscape:cx="-47.555085"
     inkscape:cy="25"
     inkscape:window-x="0"
     inkscape:window-y="27"
     inkscape:window-maximized="1"
     inkscape:current-layer="svg4" /><path
     d="M46.5 12.5c-.4-1.1-1.3-1.8-2.2-2-4.2-4-11.6-4.3-17.1-4.1-6.9.3-13.9 2.1-19.4 6.5C2 17.5-2.4 25.7 2.5 32.6c2.2 3.2 5.5 4.9 9 5.5 3.3 1.7 6.7 3.3 10.2 4.4 7.8 2.3 17 1.6 23.2-4.3 7.3-7 4.8-17.3 1.6-25.7zm-20.2 2.7c.6 0 1.3 0 1.8.2 1.1.4 1.7 1.3 2 2.3-1-1.2-2.4-2.1-3.8-2.5zm-1.4 6.6c.9.9 1.3 2.2-.2 2.3-2 .2-1.1-1.9.2-2.3zm-11.8 9.8c-.6-.3-2.9-1.1-3.2-1.8-.2-.5 1.4-3.1 2.1-4.2.3.5.7 1 1.2 1.4 0 .3.1.6.2.8.5 1.9 1.5 3.1 2.9 4h-.2c-.8.1-1.6.1-2.5-.1-.2 0-.3 0-.5-.1zM24 36.4c1.6-.7 3-1.5 4.3-2.5.8.2 1.7.3 2.5.5 2.5.4 5.2.9 7.7.6-.9.6-2 1.1-3 1.4-3.9 1.3-7.7 1-11.5 0z"
     id="path2"
     style="fill:#ff0000" /></svg>