<?xml version="1.0" encoding="UTF-8" standalone="no"?>
<svg
   xmlns:dc="http://purl.org/dc/elements/1.1/"
   xmlns:cc="http://creativecommons.org/ns#"
   xmlns:rdf="http://www.w3.org/1999/02/22-rdf-syntax-ns#"
   xmlns:svg="http://www.w3.org/2000/svg"
   xmlns="http://www.w3.org/2000/svg"
   xmlns:sodipodi="http://sodipodi.sourceforge.net/DTD/sodipodi-0.dtd"
   xmlns:inkscape="http://www.inkscape.org/namespaces/inkscape"
   xml:space="preserve"
   width="14"
   viewBox="0 0 50 50"
   version="1.1"
   id="svg4"
   sodipodi:docname="marker3.svg"
   inkscape:version="0.92.5 (2060ec1f9f, 2020-04-08)"><metadata
     id="metadata10"><rdf:RDF><cc:Work
         rdf:about=""><dc:format>image/svg+xml</dc:format><dc:type
           rdf:resource="http://purl.org/dc/dcmitype/StillImage" /></cc:Work></rdf:RDF></metadata><defs
     id="defs8" /><sodipodi:namedview
     pagecolor="#ffffff"
     bordercolor="#666666"
     borderopacity="1"
     objecttolerance="10"
     gridtolerance="10"
     guidetolerance="10"
     inkscape:pageopacity="0"
     inkscape:pageshadow="2"
     inkscape:window-width="2560"
     inkscape:window-height="1376"
     id="namedview6"
     showgrid="false"
     inkscape:zoom="4.72"
     inkscape:cx="-47.555085"
     inkscape:cy="25"
     inkscape:window-x="0"
     inkscape:window-y="27"
     inkscape:window-maximized="1"
     inkscape:current-layer="svg4" /><path
     d="M48.3 23.7c-1-9.9-9.9-15.6-18.8-17.8-8.2-2.1-18.8-2.6-24.6 4.8C.6 16.2 1 23.6 4.3 29.3c-.5 1-.8 2-1 3-.6 4 2 7.6 5.1 10 5.9 4.4 14 4.2 19.6-.4 1.5 0 2.9-.2 4.4-.5 1.8 0 3.5 0 5.3-.1 2.3-.1 3.5-1.9 3.5-3.7 4.5-3.3 7.7-8.2 7.1-13.9zM9.1 17.8c1.1-4.1 4.9-5.8 8.8-6.1.9-.1 1.9-.1 2.9-.1-3.2 1.6-6.3 4.6-8 7.4-.1.1-.1.2-.2.3-1.1.9-2.1 1.9-3 2.9-.2.2-.4.4-.5.6-.4-1.7-.5-3.3 0-5z"
     id="path2"
     style="fill:#ff0000" /></svg>